#!OML:ASF F:\VICON\USERDATA\INSTALL\rory3\rory3.ASF
:FULLY-SPECIFIED
:DEGREES
27
root 0.8315820493757793 18.0054398394988 -3.076353656859455 -3.9805667914683864 -1.7534387261279507 1.267417876197558
lfemur -4.2040822751629054 -3.085980607482229 -26.059825976835743
ltibia 28.003197430559084
lfoot -14.232488625993517 1.9668092310456382
ltoes -0.43685038288918054
rfemur -27.531075870920997 -2.48814613033869 21.03995464997972
rtibia 77.52066381716628
rfoot -4.485193003429429 -7.225295286096352
rtoes 6.9342015988323
lowerback 11.640493047747507 0.17648332671495126 -1.995461203099752
upperback 0.4698110970135086 0.048948217087403934 0.7223853422398187
thorax -5.952583379427113 0.08443016420240479 2.016614329395909
lowerneck -15.893354990733652 -2.615522802098481 -1.5686176928939561
upperneck 21.923628651810027 -3.2949310212740843 0.3188237810089096
head 9.574723829396381 -1.6411149220266232 -0.07818797387694976
lclavicle -7.307927209370882e-16 -6.318253442525303e-16
lhumerus -30.312726908745198 1.8885947991107717 81.13233703304091
lradius 23.61556266514468
lwrist 4.735221242643698
lhand -28.01293238165172 22.99405666584671
lfingers 7.125020000000058
lthumb -1.3980765248183413 52.960485931943204
rclavicle -7.307927209370882e-16 -6.318253442525303e-16
rhumerus -30.62652732309961 -21.01485823898149 -78.25340365276482
rradius 25.712551991878065
rwrist 3.4139969289670367
rhand -17.25971134817253 29.77415520767849
rfingers 7.125020000000058
rthumb 8.985214205496815 -6.607485354464316
28
root 0.8263642317764037 17.980816039050634 -1.6582596303858335 -3.740330749863718 -1.1294615291908237 1.87463891160878
lfemur -1.4789964827470854 -2.90101837808297 -26.661984214456297
ltibia 27.89962878729663
lfoot -16.042443650594418 2.7125687286692433
ltoes -0.6968762811033447
rfemur -30.411097934313013 -2.456037089935903 20.72002285844885
rtibia 71.20664790307123
rfoot -6.122157171332736 -7.639819350881605
rtoes 4.012156139002942
lowerback 11.700864191084145 -0.1362402032570097 -2.699101636515051
upperback 0.49901641070102126 -0.4588721014857019 0.7892881075636254
thorax -5.892226587357426 -0.14561818283989225 2.630563862950507
lowerneck -15.750850025889406 -2.6172158239622343 -1.7401649683447866
upperneck 21.753989548865185 -3.281875857848446 0.5021223563318249
head 9.498361984798239 -1.634649978099009 0.01474486323595392
lclavicle -4.274453874507763e-16 -3.969426224356348e-16
lhumerus -28.854466664807713 -0.01005641018026715 81.26080010570145
lradius 26.011105866651086
lwrist 5.582161665188101
lhand -28.319745608938092 23.2125891099863
lfingers 7.125020000000058
lthumb -1.6943627863170465 53.182554878053985
rclavicle -4.274453874507763e-16 -3.969426224356348e-16
rhumerus -31.452913435956702 -20.45070716488674 -77.86126224578842
rradius 26.658945122683143
rwrist 2.8239992763251047
rhand -17.14932724701236 29.387387258847166
rfingers 7.125020000000058
rthumb 9.091513316181445 -5.968064981737698
29
root 0.8192729395842002 17.93657816604812 -0.783625404278304 -3.161002428604309 -0.3786388011692098 2.332237805783429
lfemur 1.4089196326460378 -2.4243859290170966 -27.18751549884803
ltibia 26.782013193338486
lfoot -16.99136446075952 2.771512860898029
ltoes 0.08827863100113476
rfemur -32.316158962922295 -1.5983338533445957 20.218091882950844
rtibia 61.189771393861
rfoot -6.467082143973334 -9.137353661543687
rtoes 0.7110087477090818
lowerback 11.68678271495269 -0.39090768748263327 -3.190161093505181
upperback 0.537426083803719 -0.8544885406407791 0.899943824092912
thorax -5.762806486662747 -0.32698287274979476 3.150132374887366
lowerneck -15.792701353829912 -2.6597076640131836 -1.8412550844811686
upperneck 21.605922369987752 -3.317874856943112 0.6107172738301454
head 9.46134867299787 -1.6541579110870368 0.06350532084722676
lclavicle -7.680201608057883e-17 -1.2543855452326462e-16
lhumerus -26.910711331141496 -1.8532730478639028 81.3965573730998
lradius 28.387634343135986
lwrist 6.3343481600851295
lhand -28.207044448442165 24.915804545288626
lfingers 7.125020000000059
lthumb -1.5855687519290953 54.88195671245286
rclavicle -7.680201608057883e-17 -1.2543855452326462e-16
rhumerus -32.0926722528918 -20.296066215086448 -77.40619351013606
rradius 27.47449120119561
rwrist 2.6947031512812467
rhand -17.264712381825788 29.835423347901777
rfingers 7.125020000000059
rthumb 8.980161803930256 -5.985132917415617
30
root 0.810405568346466 17.899730054013787 -0.18800152562231354 -2.5803228407141767 0.12777918988259762 2.6881462307686292
lfemur 4.533808692268398 -1.9721113805325032 -27.50031088881548
ltibia 24.198770035336608
lfoot -17.42931887961487 2.103629615825331
ltoes 0.5483907751214536
rfemur -33.228861424175996 0.040906554888835434 19.32836199964535
rtibia 48.21830053471999
rfoot -5.965432309673327 -11.723531732347258
rtoes -1.886365476642398
lowerback 11.370181613432345 -0.6436129373977272 -3.832075136131949
upperback 0.5091843226261827 -1.255235120831553 0.960757476348156
thorax -5.594644574188896 -0.5091174266687299 3.6238106799256076
lowerneck -15.887435619638179 -2.698759164280318 -1.8787849303780626
upperneck 21.264069458833106 -3.3774830473740574 0.6878005298743675
head 9.365556654965147 -1.6747311854652862 0.08997831955408242
lclavicle -1.5862035053718473e-16 -1.8879076226659846e-16
lhumerus -25.358754208496585 -3.46996195574022 81.16452584857421
lradius 29.69530316253994
lwrist 7.28765609865288
lhand -28.40529710385069 25.18172097535311
lfingers 7.125020000000059
lthumb -1.77709243519102 55.143409415606335
rclavicle -1.5862035053718473e-16 -1.8879076226659846e-16
rhumerus -33.238702409982345 -20.469115387717117 -77.09083340990847
rradius 27.144331597318363
rwrist 2.7623791156269295
rhand -17.278625186113985 29.917876520973447
rfingers 7.125020000000059
rthumb 8.96668929460952 -5.893101885380589
31
root 0.8294831191070052 17.875833881232996 0.8608643380002423 -1.8450709570681387 0.7966189744740162 3.0148190137526387
lfemur 8.162337793475789 -1.4119579851822264 -27.666060829622104
ltibia 20.35834896292257
lfoot -17.648131645028162 1.28092851825485
ltoes -0.6201764790748792
rfemur -32.762778151744435 2.5111863406578125 18.259263062208923
rtibia 33.40732687098214
rfoot -5.189367044195974 -14.68341670733868
rtoes -4.652838750357587
lowerback 10.830562808678888 -0.8983924851519461 -4.361191243912789
upperback 0.45174024581495503 -1.6437851364970948 1.0251147819582185
thorax -5.312919532403645 -0.6894709482645492 4.065020667658827
lowerneck -15.972374216648747 -2.6977233167777137 -1.8738452815053486
upperneck 21.182343928395248 -3.3812576165190094 0.7309477767015404
head 9.354390712456764 -1.671137359767164 0.10156120891369735
lclavicle -4.910254630625829e-17 -1.0399082047536806e-16
lhumerus -23.786564486141586 -4.5668663513352925 80.86641005788707
lradius 31.512157700292637
lwrist 8.0099922916367
lhand -28.638405928321678 26.235735021124057
lfingers 7.12502000000006
lthumb -2.002312767423145 56.18872302095285
rclavicle -4.910254630625829e-17 -1.0399082047536806e-16
rhumerus -34.03321575059134 -21.187145378682228 -76.32942896434801
rradius 26.657209132276137
rwrist 3.826447275450538
rhand -17.288345944405247 29.80437968959899
rfingers 7.12502000000006
rthumb 8.957361532912167 -5.79027074868032
